<?xml version="1.0" standalone="no"?><!DOCTYPE svg PUBLIC "-//W3C//DTD SVG 1.1//EN" "http://www.w3.org/Graphics/SVG/1.1/DTD/svg11.dtd"><svg t="1736147351835" class="icon" viewBox="0 0 1024 1024" version="1.1" xmlns="http://www.w3.org/2000/svg" p-id="4695" xmlns:xlink="http://www.w3.org/1999/xlink" width="200" height="200"><path d="M512.682667 0C230.263467 0 1.365333 229.1712 1.365333 512S230.1952 1024 512.682667 1024C795.0336 1024 1024 794.8288 1024 512S794.897067 0 512.682667 0z m0 955.5968a443.323733 443.323733 0 0 1-443.050667-443.733333A443.392 443.392 0 0 1 512.682667 68.266667C757.3504 68.266667 955.733333 266.922667 955.733333 512a443.392 443.392 0 0 1-443.050666 443.665067z" fill="#1296db" p-id="4696"></path><path d="M546.133333 273.066667v477.661866H473.2928V375.466667H409.6v-44.373334c32.1536-7.168 61.303467-26.555733 87.381333-58.026666H546.133333z" fill="#1296db" p-id="4697"></path></svg>