<?xml version="1.0" standalone="no"?><!DOCTYPE svg PUBLIC "-//W3C//DTD SVG 1.1//EN" "http://www.w3.org/Graphics/SVG/1.1/DTD/svg11.dtd"><svg t="1736147386466" class="icon" viewBox="0 0 1024 1024" version="1.1" xmlns="http://www.w3.org/2000/svg" p-id="5900" xmlns:xlink="http://www.w3.org/1999/xlink" width="200" height="200"><path d="M512.682667 0C230.263467 0 1.365333 229.1712 1.365333 512S230.1952 1024 512.682667 1024C795.0336 1024 1024 794.8288 1024 512S794.897067 0 512.682667 0z m0 955.5968a443.323733 443.323733 0 0 1-443.050667-443.733333A443.392 443.392 0 0 1 512.682667 68.266667C757.3504 68.266667 955.733333 266.922667 955.733333 512a443.392 443.392 0 0 1-443.050666 443.665067z" fill="#1296db" p-id="5901"></path><path d="M342.016 687.854933h340.104533v62.805334H342.016v-62.805334z m237.021867-219.067733c16.247467-14.062933 25.3952-33.109333 25.326933-52.974933 0-20.002133-9.216-39.185067-25.6-53.248a95.095467 95.095467 0 0 0-61.8496-22.1184 94.208 94.208 0 0 0-65.194667 25.122133 68.8128 68.8128 0 0 0-21.7088 58.5728H351.982933a119.330133 119.330133 0 0 1-0.273066-8.328533c0-78.6432 73.9328-142.336 165.205333-142.336s165.205333 63.6928 165.205333 142.336c0 39.185067-18.432 74.683733-48.196266 100.488533l-194.7648 171.554133H342.016l237.090133-218.999466z" fill="#1296db" p-id="5902"></path></svg>