<?xml version="1.0" standalone="no"?><!DOCTYPE svg PUBLIC "-//W3C//DTD SVG 1.1//EN" "http://www.w3.org/Graphics/SVG/1.1/DTD/svg11.dtd"><svg t="1736147302902" class="icon" viewBox="0 0 1024 1024" version="1.1" xmlns="http://www.w3.org/2000/svg" p-id="3486" xmlns:xlink="http://www.w3.org/1999/xlink" width="200" height="200"><path d="M512.682667 0C230.263467 0 1.365333 229.1712 1.365333 512S230.1952 1024 512.682667 1024C795.0336 1024 1024 794.8288 1024 512S794.897067 0 512.682667 0z m0 955.5968a443.323733 443.323733 0 0 1-443.050667-443.733333A443.392 443.392 0 0 1 512.682667 68.266667C757.3504 68.266667 955.733333 266.922667 955.733333 512a443.392 443.392 0 0 1-443.050666 443.665067z" fill="#1296db" p-id="3487"></path><path d="M594.3296 489.198933c27.989333 6.621867 48.059733 22.050133 63.6928 44.100267 14.472533 22.050133 23.415467 46.2848 24.576 71.68 0 40.7552-14.5408 75.9808-44.714667 103.560533-29.013333 27.579733-68.130133 41.847467-115.029333 41.847467-47.991467 0-88.200533-12.0832-122.811733-36.317867-34.6112-24.234667-53.589333-53.998933-58.026667-90.385066l73.728-13.243734c3.2768 20.957867 14.472533 38.570667 33.450667 53.998934 18.978133 15.428267 41.301333 23.210667 66.9696 23.210666 26.8288 0 48.059733-7.7824 64.785066-22.1184 15.633067-14.336 24.576-31.9488 24.576-53.930666 0-23.210667-7.850667-41.915733-24.576-58.436267-16.725333-15.428267-35.703467-24.302933-55.842133-24.302933-16.725333 0-30.173867 1.160533-37.956267 3.345066l6.690134-59.528533h8.942933c26.8288 0 46.8992-7.714133 60.279467-22.050133 13.448533-15.428267 20.138667-30.856533 20.138666-48.469334 0-22.050133-6.690133-37.4784-20.138666-47.377066a78.0288 78.0288 0 0 0-47.991467-15.428267c-40.209067 0-67.037867 18.705067-79.2576 55.0912L362.0864 382.293333c7.7824-33.041067 26.760533-60.6208 55.842133-79.325866 29.013333-19.797333 63.624533-29.764267 102.741334-29.764267 34.6112 0 65.877333 10.990933 94.890666 31.9488 29.013333 20.957867 42.461867 51.8144 42.461867 91.477333-1.160533 43.008-21.230933 74.9568-63.6928 92.5696z" fill="#1296db" p-id="3488"></path></svg>