<?xml version="1.0" standalone="no"?><!DOCTYPE svg PUBLIC "-//W3C//DTD SVG 1.1//EN" "http://www.w3.org/Graphics/SVG/1.1/DTD/svg11.dtd"><svg t="1736149490602" class="icon" viewBox="0 0 1024 1024" version="1.1" xmlns="http://www.w3.org/2000/svg" p-id="28815" xmlns:xlink="http://www.w3.org/1999/xlink" width="200" height="200"><path d="M254.506667 896a84.949333 84.949333 0 0 1-59.946667-24.789333c-15.786667-15.786667-24.32-36.522667-23.893333-58.581334 0-143.786667 118.101333-260.949333 263.253333-260.949333h119.424c145.109333 0 263.210667 117.162667 263.210667 260.949333 0 45.952-37.888 83.370667-84.309334 83.370667H254.506667z m179.370666-296.106667c-57.216 0-111.317333 22.101333-151.893333 62.208a210.304 210.304 0 0 0-62.634667 150.528c0 19.370667 15.786667 34.688 35.157334 34.688h478.208c19.370667 0 35.157333-15.786667 35.157333-34.688 0-117.205333-96.426667-212.736-214.528-212.736h-119.466667z m59.52-68.053333a203.264 203.264 0 0 1-143.786666-59.050667C311.296 434.474667 289.706667 384 290.133333 329.898667 290.133333 218.581333 381.610667 128 493.824 128s203.733333 90.581333 203.733333 201.898667c-0.426667 111.36-91.477333 201.941333-204.16 201.941333z m0-355.157333c-85.205333 0-155.050667 68.949333-155.050666 153.216 0 84.736 69.418667 153.728 155.050666 153.728 85.632 0 155.050667-68.992 155.050667-153.728 0-84.736-69.418667-153.216-155.050667-153.216z" fill="#2c2c2c" p-id="28816"></path><path d="M732.714667 900.010667H254.506667c-48.298667 0-88.32-39.253333-87.893334-87.466667 0.042667-146.261333 119.765333-264.917333 267.264-264.917333h119.893334c147.498667 0 267.264 118.229333 267.264 264.96a87.68 87.68 0 0 1-88.32 87.466666zM175.189333 812.629333c0-141.525333 115.84-256.426667 258.688-256.426666h119.893334c142.890667 0 258.730667 114.432 258.730666 256.426666a79.146667 79.146667 0 0 1-79.786666 78.848H254.506667c-43.733333 0-79.786667-35.584-79.36-78.848z m378.154667-208.725333h-119.466667c-116.565333 0-210.517333 93.610667-210.517333 208.725333 0 16.853333 13.696 30.677333 31.146667 30.677334h478.208c17.408 0 31.146667-13.824 31.146666-30.72 0-115.072-94.378667-208.64-210.517333-208.64z m147.797333-274.005333c0 113.877333-93.141333 205.952-207.786666 205.952-114.090667 0-207.744-92.032-207.274667-205.952 0-113.834667 92.672-205.909333 207.317333-205.909334 114.602667 0 207.744 92.074667 207.744 205.909334z m-406.528 0c0-109.056 88.789333-197.376 198.784-197.376 109.952 0 199.210667 88.32 199.210667 197.376 0 109.098667-89.258667 197.418667-199.253333 197.418666-109.482667 0-199.168-88.32-198.741334-197.418666z m349.781334 0.469333c0-82.645333-67.328-149.674667-151.04-149.674667-83.2 0-150.570667 66.986667-150.997334 149.248a150.528 150.528 0 0 0 151.04 150.101334c83.669333 0 151.04-66.986667 151.04-149.674667z m-91.050667 265.002667h-119.466667c-121.216 0-219.050667 97.365333-219.050666 217.258666 0 21.632 17.578667 39.210667 39.68 39.210667h478.208c22.058667 0 39.68-17.578667 39.68-39.253333 0-119.893333-98.261333-217.173333-219.050667-217.173334z m99.584-265.002667c0-87.466667-71.210667-158.208-159.573333-158.208-87.893333 0-159.061333 70.784-159.530667 157.738667 0 87.466667 71.253333 158.677333 159.573333 158.677333 88.32 0 159.573333-70.784 159.573334-158.208z" fill="#2c2c2c" p-id="28817"></path></svg>