<?xml version="1.0" standalone="no"?><!DOCTYPE svg PUBLIC "-//W3C//DTD SVG 1.1//EN" "http://www.w3.org/Graphics/SVG/1.1/DTD/svg11.dtd"><svg t="1735804766583" class="icon" viewBox="0 0 1035 1024" version="1.1" xmlns="http://www.w3.org/2000/svg" p-id="1503" xmlns:xlink="http://www.w3.org/1999/xlink" width="202.1484375" height="200"><path d="M833.161206 82.125397H763.444285V59.235435c0-24.605317-19.949354-44.554671-44.554671-44.554671H316.081974c-24.605317 0-44.554671 19.949354-44.554671 44.554671v22.889962h-69.716921c-56.651264 0-102.731932 46.091807-102.731933 102.731932v734.428056c0 56.651264 46.091807 102.731932 102.731933 102.731932h631.350824c56.651264 0 102.731932-46.091807 102.731932-102.731932V184.857329c0-56.651264-46.091807-102.731932-102.731932-102.731932zM360.636644 103.790106H674.334943v30.330592H360.636644V103.790106z m486.147153 815.495279c0 7.518601-6.115129 13.622591-13.622591 13.62259H201.810382c-7.518601 0-13.622591-6.115129-13.622591-13.62259V184.857329c0-7.518601 6.115129-13.622591 13.622591-13.62259h69.716921v7.44063c0 24.605317 19.949354 44.554671 44.554671 44.554671H718.889614c24.605317 0 44.554671-19.949354 44.554671-44.554671v-7.44063h69.716921c7.518601 0 13.622591 6.115129 13.622591 13.62259v734.428056z m-70.841927-563.883914c0 24.605317-19.949354 44.554671-44.554671 44.55467H303.584388c-24.605317 0-44.554671-19.949354-44.55467-44.55467s19.949354-44.554671 44.55467-44.554671h427.802811c24.605317 0 44.554671 19.949354 44.554671 44.554671z m0 193.333855c0 24.605317-19.949354 44.554671-44.554671 44.554671H303.584388c-24.605317 0-44.554671-19.949354-44.55467-44.554671s19.949354-44.554671 44.55467-44.554671h427.802811c24.605317 0 44.554671 19.949354 44.554671 44.554671z m0 193.333856c0 24.605317-19.949354 44.554671-44.554671 44.55467H303.584388c-24.605317 0-44.554671-19.949354-44.55467-44.55467s19.949354-44.554671 44.55467-44.554671h427.802811c24.605317 0 44.554671 19.949354 44.554671 44.554671z" p-id="1504"></path></svg>