<?xml version="1.0" standalone="no"?><!DOCTYPE svg PUBLIC "-//W3C//DTD SVG 1.1//EN" "http://www.w3.org/Graphics/SVG/1.1/DTD/svg11.dtd"><svg t="1735889816974" class="icon" viewBox="0 0 1024 1024" version="1.1" xmlns="http://www.w3.org/2000/svg" p-id="4163" xmlns:xlink="http://www.w3.org/1999/xlink" width="200" height="200"><path d="M512 1024C229.877551 1024 0 794.122449 0 512S229.877551 0 512 0 1024 229.877551 1024 512 794.122449 1024 512 1024z m0-41.795918C771.134694 982.204082 982.204082 771.134694 982.204082 512S771.134694 41.795918 512 41.795918 41.795918 252.865306 41.795918 512 252.865306 982.204082 512 982.204082z" fill="" p-id="4164"></path><path d="M710.530612 365.714286c12.538776-14.628571 35.526531-14.628571 48.065306 0 12.538776 14.628571 12.538776 35.526531 0 50.155102l-263.314285 271.673469c-12.538776 14.628571-35.526531 14.628571-48.065306 0l-123.29796-129.567347c-12.538776-14.628571-12.538776-35.526531 0-50.155102s35.526531-14.628571 48.065306 0l100.310205 104.489796L710.530612 365.714286z" fill="" p-id="4165"></path></svg>