<?xml version="1.0" standalone="no"?><!DOCTYPE svg PUBLIC "-//W3C//DTD SVG 1.1//EN" "http://www.w3.org/Graphics/SVG/1.1/DTD/svg11.dtd"><svg t="1736169022101" class="icon" viewBox="0 0 1024 1024" version="1.1" xmlns="http://www.w3.org/2000/svg" p-id="5977" xmlns:xlink="http://www.w3.org/1999/xlink" width="127" height="127"><path d="M144.409796 853.277087a26.591733 26.591733 0 0 1-20.686267-9.846252 509.446434 509.446434 0 0 1-42.263493-59.717174 27.128594 27.128594 0 0 1 8.978136-37.180452 26.728804 26.728804 0 0 1 36.929156 9.03525 447.079225 447.079225 0 0 0 37.831537 53.434763 27.299932 27.299932 0 0 1-3.51815 38.094257 27.802525 27.802525 0 0 1-17.270919 6.179608z m0 0" fill="#CD3333" p-id="5978"></path><path d="M511.839469 1023.998755a508.030036 508.030036 0 0 1-294.896381-93.550814 26.993807 26.993807 0 0 1 31.092224-44.136794 454.823724 454.823724 0 0 0 263.86127 83.590336c252.381591 0 457.782169-205.503381 457.782169-458.044888s-205.400578-458.044888-457.782169-458.044888-457.656521 205.606184-457.656521 458.113424A456.445729 456.445729 0 0 0 72.641815 640.691715a27.038355 27.038355 0 0 1-51.892717 15.214858 513.204458 513.204458 0 0 1-20.469237-143.924329C0.279861 229.639263 229.804897 0 512.010808 0s511.730947 229.593572 511.730947 511.982244-229.593572 511.993666-511.845173 511.993666z m0 0" fill="#CD3333" p-id="5979"></path><path d="M629.948799 292.680403a21.885636 21.885636 0 0 0-19.247023 11.525369l-59.819977 110.856001q-26.431817 49.722429-32.314438 66.113811h-1.142257q-16.722636-38.277018-92.100148-177.04977a21.885636 21.885636 0 0 0-19.212756-11.479679h-11.045621c-16.905397 0-27.414158 18.458866-18.927191 33.125441l96.315074 166.358248h-72.818856a21.977017 21.977017 0 0 0-21.908482 22.045552 21.977017 21.977017 0 0 0 21.908482 22.136933h89.096013v60.756627h-89.096013a21.965594 21.965594 0 0 0-21.897059 22.045552v0.525438a21.965594 21.965594 0 0 0 21.897059 22.07982h89.096013v66.433642a21.977017 21.977017 0 0 0 21.908481 22.056975h11.274072a21.977017 21.977017 0 0 0 21.897059-22.056975v-66.433642h85.200918a21.977017 21.977017 0 0 0 21.919904-22.091242v-0.514016a21.965594 21.965594 0 0 0-21.897059-22.045552h-85.178073V536.312309h85.200918a21.977017 21.977017 0 0 0 21.874214-22.056975 21.965594 21.965594 0 0 0-21.897059-22.045552h-69.98606l97.194612-166.27829c8.589769-14.712265-1.930414-33.251089-18.870079-33.251089z" fill="#B63331" p-id="5980"></path></svg>