<?xml version="1.0" standalone="no"?><!DOCTYPE svg PUBLIC "-//W3C//DTD SVG 1.1//EN" "http://www.w3.org/Graphics/SVG/1.1/DTD/svg11.dtd"><svg t="1736142021880" class="icon" viewBox="0 0 1024 1024" version="1.1" xmlns="http://www.w3.org/2000/svg" p-id="12510" xmlns:xlink="http://www.w3.org/1999/xlink" width="127" height="127"><path d="M551.370683 539.963888l-17.277502-7.451715 15.246239-11.036358c63.838957-46.222741 107.816564-119.868041 107.928105-202.886826 0.184195-136.673799-108.576881-251.5522-234.763838-251.573689-126.153188-0.019443-228.786707 111.280456-228.786707 248.062725 0 83.010599 38.112016 160.168909 101.948927 206.398814l15.243169 11.03738-17.275456 7.450693c-64.047712 27.618011-118.713752 74.775031-158.089551 136.369877-40.397059 63.192228-61.749366 137.370671-61.749366 214.515678 0 5.149277 0.151449 10.494005 0.478907 16.616446h0.718361v10.692527c0 13.983479 10.18599 25.360598 22.705118 25.360597 27.586288 0 36.608779-11.377118 36.609803-25.314548-0.01228-0.277316-0.058328-0.545422-0.092098-0.816599a40.599673 40.599673 0 0 1-0.180102-1.642406c-0.738827-9.120728-1.231037-16.844643-1.231037-24.89704 0-180.435489 121.399931-309.059961 288.811802-309.059961 167.414941 0 290.590308 142.537344 290.590307 322.972832 0 9.210779-0.63138 18.099217-1.257643 25.606191-0.00614 0.12382-0.013303 0.242524-0.021489 0.356111l0.030699 1.040702c0.391926 13.778818 9.100262 26.825972 30.652114 25.666566 12.264325-0.659009 28.063149-25.799596 28.454052-39.57739l0.367367-10.388605h0.328481c0.303922-6.03853 0.448208-11.45489 0.448208-16.604166 0.00307-77.151148-21.346167-151.331637-61.742203-214.524888-39.375799-61.597917-94.043886-108.754936-158.094667-136.372948z m-296.708656-222.517932c0-108.381429 66.225307-194.779172 166.952406-194.779172 100.729146 0 180.866301 86.396719 180.866301 194.779172 0 108.384499-79.248925 194.192817-179.977047 194.192817s-167.841659-85.809341-167.84166-194.192817z m644.258233 329.711303c-32.751938-51.190893-78.209246-90.353844-131.453914-113.25953l-17.328667-7.452739 15.299451-11.04659c53.012378-38.278815 84.662215-102.278431 84.662215-171.198104 0-46.787606-14.887059-92.560092-41.916669-128.886439-25.993001-34.93158-62.173015-59.923788-102.192473-70.605058l-0.384763 0.159636-2.682086-0.268106a33.493835 33.493835 0 0 1-1.611707-0.209778c-0.161682-0.023536-0.323365-0.052189-0.488117-0.070608-12.925381 0.090051-23.416316 11.858072-23.416316 26.310226 0 13.014408 8.416693 23.896246 20.014846 25.87532l1.298575 0.221034 1.206478 0.531096c1.164522 0.5137 2.888793 1.090844 5.120625 1.711992 0.597611 0.166799 0.998747 0.304945 1.188058 0.375553l-0.061398-0.023536 0.084934 0.032746-0.022513-0.008187c56.875359 20.891819 95.085612 78.319763 95.085612 142.92927 0 72.182996-47.456848 134.152373-113.121383 148.139945l-1.161453 0.63138-2.319835 0.158613c-14.679327 1.001817-26.180266 14.491039-26.180266 30.710442 0 16.626679 11.778254 30.157857 26.814716 30.807656l2.372024 0.102331 1.035585 0.542352c124.854613 14.997576 215.222783 129.060401 215.222783 272.183076 0 14.258749 10.388605 25.859971 23.159466 25.859971 12.404518 0 22.5199-10.904351 23.026436-24.824385l0.01842-0.525979 0.110517-0.788969c-0.050142-64.068178-17.814738-125.653815-51.379181-178.114631z" fill="#828282" p-id="12511"></path></svg>